<svg xmlns="http://www.w3.org/2000/svg" viewBox="0 0 1200 420" role="img" aria-labelledby="title desc" shape-rendering="crispEdges">
  <title id="title">Akash Bhaduri pixel terminal hero</title>
  <desc id="desc">A pixel art banner with a terminal scene, project list, and skyline for GitHub profile README.</desc>
  <defs>
    <pattern id="bg" width="40" height="40" patternUnits="userSpaceOnUse">
      <rect width="40" height="40" fill="#0b1114"/>
      <rect width="20" height="20" fill="#101820"/>
      <rect x="20" y="20" width="20" height="20" fill="#101820"/>
    </pattern>
    <linearGradient id="panelGlow" x1="0%" y1="0%" x2="100%" y2="100%">
      <stop offset="0%" stop-color="#13212b"/>
      <stop offset="100%" stop-color="#0f1720"/>
    </linearGradient>
  </defs>

  <rect width="1200" height="420" fill="url(#bg)"/>
  <rect y="300" width="1200" height="120" fill="#091016"/>
  <rect y="320" width="1200" height="2" fill="#1a2a36"/>

  <g fill="#56cfe1">
    <rect x="70" y="42" width="4" height="4">
      <animate attributeName="opacity" values="1;0.35;1" dur="2.2s" repeatCount="indefinite"/>
    </rect>
    <rect x="110" y="80" width="4" height="4"/>
    <rect x="180" y="48" width="4" height="4"/>
    <rect x="248" y="90" width="4" height="4"/>
    <rect x="320" y="52" width="4" height="4">
      <animate attributeName="opacity" values="1;0.4;1" dur="1.8s" repeatCount="indefinite"/>
    </rect>
    <rect x="600" y="38" width="4" height="4"/>
    <rect x="644" y="92" width="4" height="4"/>
    <rect x="930" y="30" width="4" height="4"/>
    <rect x="1084" y="116" width="4" height="4"/>
  </g>

  <g fill="#ffb86c">
    <rect x="144" y="32" width="4" height="4"/>
    <rect x="390" y="86" width="4" height="4"/>
    <rect x="536" y="58" width="4" height="4"/>
    <rect x="760" y="40" width="4" height="4"/>
    <rect x="1110" y="56" width="4" height="4">
      <animate attributeName="opacity" values="1;0.2;1" dur="2.6s" repeatCount="indefinite"/>
    </rect>
  </g>

  <g fill="#ffb86c">
    <rect x="980" y="44" width="80" height="8"/>
    <rect x="964" y="52" width="112" height="8"/>
    <rect x="956" y="60" width="128" height="8"/>
    <rect x="948" y="68" width="144" height="8"/>
    <rect x="940" y="76" width="160" height="8"/>
    <rect x="940" y="84" width="160" height="8"/>
    <rect x="932" y="92" width="176" height="8"/>
    <rect x="932" y="100" width="176" height="8"/>
    <rect x="940" y="108" width="160" height="8"/>
    <rect x="940" y="116" width="160" height="8"/>
    <rect x="948" y="124" width="144" height="8"/>
    <rect x="956" y="132" width="128" height="8"/>
    <rect x="964" y="140" width="112" height="8"/>
    <rect x="980" y="148" width="80" height="8"/>
  </defs>

  <g>
    <rect x="70" y="52" width="108" height="28" fill="#ffb86c"/>
    <text x="88" y="71" fill="#0b1114" font-family="Consolas, 'Courier New', monospace" font-size="15" font-weight="700">PLAYER 01</text>

    <text x="70" y="132" fill="#f0f6fc" font-family="Consolas, 'Courier New', monospace" font-size="52" font-weight="700">AKASH // BLAKE</text>
    <text x="70" y="168" fill="#56cfe1" font-family="Consolas, 'Courier New', monospace" font-size="24" font-weight="700">NEURAL CORE &amp; TERMINAL ARCHITECT</text>
    <text x="70" y="196" fill="#94a3b8" font-family="Consolas, 'Courier New', monospace" font-size="18">LLMs / Deep Learning / Linear Algebra / Neovim</text>

    <rect x="70" y="218" width="112" height="28" fill="#14303d"/>
    <rect x="194" y="218" width="120" height="28" fill="#173628"/>
    <rect x="326" y="218" width="112" height="28" fill="#2d2013"/>
    <rect x="450" y="218" width="140" height="28" fill="#1f2430"/>
    <text x="95" y="237" fill="#56cfe1" font-family="Consolas, 'Courier New', monospace" font-size="15" font-weight="700">PYTHON</text>
    <text x="210" y="237" fill="#7ee787" font-family="Consolas, 'Courier New', monospace" font-size="15" font-weight="700">AI / LLM</text>
    <text x="352" y="237" fill="#ffb86c" font-family="Consolas, 'Courier New', monospace" font-size="15" font-weight="700">MATH</text>
    <text x="470" y="237" fill="#f0f6fc" font-family="Consolas, 'Courier New', monospace" font-size="15" font-weight="700">NEOVIM ENTHUSIAST</text>
  </g>

  <g fill="#111923">
    <rect x="0" y="332" width="68" height="88"/>
    <rect x="78" y="308" width="72" height="112"/>
    <rect x="162" y="286" width="88" height="134"/>
    <rect x="264" y="320" width="60" height="100"/>
    <rect x="338" y="276" width="92" height="144"/>
    <rect x="442" y="300" width="58" height="120"/>
    <rect x="512" y="266" width="72" height="154"/>
    <rect x="596" y="324" width="44" height="96"/>
    <rect x="650" y="292" width="68" height="128"/>
    <rect x="730" y="314" width="54" height="106"/>
    <rect x="796" y="280" width="84" height="140"/>
    <rect x="894" y="326" width="52" height="94"/>
    <rect x="958" y="292" width="78" height="128"/>
    <rect x="1048" y="304" width="66" height="116"/>
    <rect x="1126" y="272" width="74" height="148"/>
  </g>

  <g fill="#ffb86c">
    <rect x="92" y="326" width="8" height="8"/>
    <rect x="118" y="348" width="8" height="8"/>
    <rect x="192" y="306" width="8" height="8"/>
    <rect x="218" y="330" width="8" height="8"/>
    <rect x="358" y="300" width="8" height="8"/>
    <rect x="382" y="332" width="8" height="8"/>
    <rect x="534" y="294" width="8" height="8"/>
    <rect x="560" y="320" width="8" height="8"/>
    <rect x="678" y="316" width="8" height="8"/>
    <rect x="822" y="306" width="8" height="8"/>
    <rect x="846" y="338" width="8" height="8"/>
    <rect x="986" y="316" width="8" height="8"/>
    <rect x="1010" y="344" width="8" height="8"/>
    <rect x="1148" y="294" width="8" height="8"/>
    <rect x="1172" y="324" width="8" height="8"/>
  </g>

  <g fill="#56cfe1" opacity="0.85">
    <rect x="102" y="342" width="8" height="8"/>
    <rect x="206" y="344" width="8" height="8"/>
    <rect x="370" y="344" width="8" height="8"/>
    <rect x="546" y="346" width="8" height="8"/>
    <rect x="834" y="350" width="8" height="8"/>
    <rect x="998" y="352" width="8" height="8"/>
  </g>

  <g>
    <rect x="70" y="262" width="530" height="122" fill="url(#panelGlow)" stroke="#27465a" stroke-width="4"/>
    <rect x="70" y="262" width="530" height="22" fill="#1a2a36"/>
    <rect x="84" y="269" width="8" height="8" fill="#ff7b72"/>
    <rect x="98" y="269" width="8" height="8" fill="#ffb86c"/>
    <rect x="112" y="269" width="8" height="8" fill="#7ee787"/>
    <text x="136" y="277" fill="#94a3b8" font-family="Consolas, 'Courier New', monospace" font-size="11">profile.exe</text>

    <text x="88" y="307" fill="#56cfe1" font-family="Consolas, 'Courier New', monospace" font-size="18">PS C:\Users\akash&gt; launch profile.exe</text>
    <rect x="451" y="294" width="9" height="18" fill="#7ee787">
      <animate attributeName="opacity" values="1;1;0;0;1" dur="1.1s" repeatCount="indefinite"/>
    </rect>
    <text x="88" y="334" fill="#f0f6fc" font-family="Consolas, 'Courier New', monospace" font-size="16">status  : training llms + deep learning</text>
    <text x="88" y="354" fill="#f0f6fc" font-family="Consolas, 'Courier New', monospace" font-size="16">focus   : linear algebra + model scaling</text>
    <text x="88" y="374" fill="#f0f6fc" font-family="Consolas, 'Courier New', monospace" font-size="16">next    : building artificial intelligence</text>
  </g>

  <g>
    <rect x="694" y="74" width="436" height="214" fill="url(#panelGlow)" stroke="#27465a" stroke-width="4"/>
    <rect x="694" y="74" width="436" height="24" fill="#1a2a36"/>
    <rect x="708" y="82" width="8" height="8" fill="#ff7b72"/>
    <rect x="722" y="82" width="8" height="8" fill="#ffb86c"/>
    <rect x="736" y="82" width="8" height="8" fill="#7ee787"/>
    <text x="760" y="90" fill="#94a3b8" font-family="Consolas, 'Courier New', monospace" font-size="11">quest-log</text>

    <rect x="712" y="112" width="12" height="12" fill="#56cfe1"/>
    <rect x="712" y="142" width="12" height="12" fill="#7ee787"/>
    <rect x="712" y="172" width="12" height="12" fill="#ffb86c"/>
    <rect x="712" y="202" width="12" height="12" fill="#f0f6fc"/>
    <rect x="712" y="232" width="12" height="12" fill="#56cfe1"/>

    <text x="738" y="123" fill="#f0f6fc" font-family="Consolas, 'Courier New', monospace" font-size="18">C:\dev\quests\</text>
    <text x="738" y="153" fill="#f0f6fc" font-family="Consolas, 'Courier New', monospace" font-size="18">|- Terminal-blog</text>
    <text x="738" y="183" fill="#f0f6fc" font-family="Consolas, 'Courier New', monospace" font-size="18">|- portfolio-site</text>
    <text x="738" y="213" fill="#f0f6fc" font-family="Consolas, 'Courier New', monospace" font-size="18">|- better-alt-tab</text>
    <text x="738" y="243" fill="#f0f6fc" font-family="Consolas, 'Courier New', monospace" font-size="18">`- neovim</text>

    <text x="738" y="270" fill="#56cfe1" font-family="Consolas, 'Courier New', monospace" font-size="17">ready_to_ship = true</text>
    <rect x="943" y="257" width="9" height="17" fill="#56cfe1">
      <animate attributeName="opacity" values="1;1;0;0;1" dur="1.25s" repeatCount="indefinite"/>
    </rect>
  </g>
</svg>