<svg xmlns="http://www.w3.org/2000/svg" viewBox="0 0 640 320" role="img" aria-labelledby="title desc">
  <title id="title">Portfolio quest card</title>
  <desc id="desc">A terminal-themed project card for the portfolio website.</desc>
  <defs>
    <linearGradient id="bg" x1="0%" y1="0%" x2="100%" y2="100%">
      <stop offset="0%" stop-color="#0b1114"/>
      <stop offset="100%" stop-color="#101b18"/>
    </linearGradient>
    <pattern id="grid" width="24" height="24" patternUnits="userSpaceOnUse">
      <rect width="24" height="24" fill="transparent"/>
      <path d="M24 0H0V24" fill="none" stroke="#18332a" stroke-width="1"/>
    </pattern>
  </defs>

  <rect width="640" height="320" rx="20" fill="url(#bg)"/>
  <rect x="10" y="10" width="620" height="300" rx="16" fill="url(#grid)" stroke="#27463a" stroke-width="2"/>
  <rect x="28" y="28" width="584" height="28" rx="8" fill="#16251f"/>
  <circle cx="48" cy="42" r="5" fill="#ff7b72"/>
  <circle cx="66" cy="42" r="5" fill="#ffb86c"/>
  <circle cx="84" cy="42" r="5" fill="#7ee787"/>
  <text x="108" y="47" fill="#94a3b8" font-family="monospace" font-size="12">quest://portfolio</text>

  <rect x="42" y="84" width="112" height="28" rx="8" fill="#173628"/>
  <text x="63" y="103" fill="#7ee787" font-family="monospace" font-size="14" font-weight="700">DEPLOYED</text>

  <text x="42" y="150" fill="#f0f6fc" font-family="monospace" font-size="34" font-weight="700">Portfolio</text>
  <text x="42" y="179" fill="#56cfe1" font-family="monospace" font-size="18">A profile site built to feel tactile, fast, and personal.</text>

  <rect x="42" y="204" width="84" height="26" rx="8" fill="#14303d"/>
  <rect x="136" y="204" width="92" height="26" rx="8" fill="#173628"/>
  <rect x="238" y="204" width="110" height="26" rx="8" fill="#1e2733"/>
  <text x="60" y="222" fill="#56cfe1" font-family="monospace" font-size="13" font-weight="700">REACT</text>
  <text x="154" y="222" fill="#7ee787" font-family="monospace" font-size="13" font-weight="700">MOTION</text>
  <text x="256" y="222" fill="#f0f6fc" font-family="monospace" font-size="13" font-weight="700">PIXEL DNA</text>

  <rect x="42" y="252" width="556" height="38" rx="10" fill="#101820" stroke="#27463a"/>
  <text x="58" y="276" fill="#7ee787" font-family="monospace" font-size="16">PS&gt; start https://akash-qn4m.onrender.com</text>

  <rect x="514" y="78" width="72" height="72" rx="12" fill="#7ee787" opacity="0.14"/>
  <rect x="530" y="94" width="40" height="40" rx="8" fill="#56cfe1" opacity="0.18"/>
  <path d="M512 182h96M512 198h74M512 214h86" stroke="#7ee787" stroke-width="3" opacity="0.45"/>
</svg>
